# AST/ASF file generated using VICON BodyLanguage
# -----------------------------------------------
:version 1.10
:name VICON
:units
  mass 1.0
  length 0.45
  angle deg
:documentation
   .ast/.asf automatically generated from VICON data using
   VICON BodyBuilder and BodyLanguage model FoxedUp or BRILLIANT.MOD
:root
   order TX TY TZ RX RY RZ
   axis XYZ
   position 0 0 0  
   orientation 0 0 0 
:bonedata
  begin
     id 1 
     name lhipjoint
     direction 0.57768 -0.667037 0.470475 
     length 2.36008 
     axis 0 0 0  XYZ
  end
  begin
     id 2 
     name lfemur
     direction 0.34202 -0.939693 0  
     length 6.97235  
     axis 0 0 20  XYZ
    dof rx ry rz
    limits (-160.0 20.0)
           (-70.0 70.0)
           (-60.0 70.0)
  end
  begin
     id 3 
     name ltibia
     direction 0.34202 -0.939693 0   
     length 6.93428   
     axis 0 0 20   XYZ
    dof rx
    limits (-10.0 170.0)
  end
  begin
     id 4 
     name lfoot
     direction 0.133018 -0.365463 0.921272   
     length 2.18603   
     axis -90 7.62852e-016 20   XYZ
    dof rx rz
    limits (-45.0 90.0)
           (-70.0 20.0)
  end
  begin
     id 5 
     name ltoes
     direction 1.53519e-011 -4.22055e-011 1   
     length 1.07924   
     axis -90 7.62852e-016 20   XYZ
    dof rx
    limits (-90.0 20.0)
  end
  begin
     id 6 
     name rhipjoint
     direction -0.577712 -0.667019 0.470462   
     length 2.36015  
     axis 0 0 0  XYZ 
  end
  begin
     id 7 
     name rfemur
     direction -0.34202 -0.939693 0   
     length 6.71195   
     axis 0 0 -20   XYZ
    dof rx ry rz
    limits (-160.0 20.0)
           (-70.0 70.0)
           (-70.0 60.0)
  end
  begin
     id 8 
     name rtibia
     direction -0.34202 -0.939693 0   
     length 7.04592   
     axis 0 0 -20   XYZ
    dof rx
    limits (-10.0 170.0)
 end
 begin
     id 9 
     name rfoot
     direction -0.113796 -0.312651 0.943027   
     length 2.03846  
     axis -90 -7.62852e-016 -20   XYZ
    dof rx rz
    limits (-45.0 90.0)
           (-20.0 70.0)
  end
  begin
     id 10 
     name rtoes
     direction -1.53586e-011 -4.218e-011 1   
     length 1.01562   
     axis -90 -7.62852e-016 -20   XYZ
    dof rx
    limits (-90.0 20.0)
  end
  begin
     id 11 
     name lowerback
     direction -0.0417299 0.991937 -0.119667   
     length 2.05257   
     axis 0 0 0   XYZ
    dof rx ry rz
    limits (-20.0 45.0)
           (-30.0 30.0)
           (-30.0 30.0)
  end
  begin
     id 12 
     name upperback
     direction -0.00017666 0.999999 0.00105178   
     length 2.05693   
     axis 0 0 0   XYZ
    dof rx ry rz
    limits (-20.0 45.0)
           (-30.0 30.0)
           (-30.0 30.0)
  end
  begin
     id 13 
     name thorax
     direction 0.0185169 0.998203 0.0569866   
     length 2.0932   
     axis 0 0 0   XYZ
    dof rx ry rz
    limits (-20.0 45.0)
           (-30.0 30.0)
           (-30.0 30.0)
  end
  begin
     id 14 
     name lowerneck
     direction -0.0212406 0.982645 0.184277   
     length 1.72509   
     axis 0 0 0   XYZ
    dof rx ry rz
    limits (-20.0 45.0)
           (-30.0 30.0)
           (-30.0 30.0)
  end
  begin
     id 15 
     name upperneck
     direction 0.00528579 0.965323 -0.261004   
     length 1.76294   
     axis 0 0 0   XYZ
    dof rx ry rz
    limits (-20.0 45.0)
           (-30.0 30.0)
           (-30.0 30.0)
  end
  begin
     id 16
     name head
     direction 0.00695421 0.994078 -0.108445  
     length 1.78678  
     axis 0 0 0   XYZ
    dof rx ry rz
    limits (-20.0 45.0)
           (-30.0 30.0)
           (-30.0 30.0)
  end
  begin
     id 17 
     name lclavicle
     direction 0.97277 0.211305 -0.095232  
     length 3.84823  
     axis 0 0 0   XYZ
    dof ry rz
    limits (-20.0 10.0)
           (0.0 20.0)
  end
  begin
     id 18 
     name lhumerus
     direction 1 -4.48957e-011 -1.98313e-027   
     length 4.97185   
     axis 180 -30 -90   XYZ
    dof rx ry rz
    limits (-60.0 90.0)
           (-90.0 90.0)
           (-90.0 90.0)
  end
  begin
     id 19
     name lradius
     direction 1 -4.4898e-011 7.31063e-027   
     length 3.35811   
     axis 180 -30 -90   XYZ
    dof rx
    limits (-10.0 170.0)
  end
  begin
     id 20
     name lwrist
     direction 1 -4.48938e-011 9.95048e-027   
     length 1.67905   
     axis -8.75986e-015 90 90   XYZ
    dof ry
    limits (-180.0 0.0)
 end
  begin
     id 21 
     name lhand
     direction 1 -4.4901e-011 1.9901e-026   
     length 0.622776   
     axis -1.26985e-014 90 90   XYZ
    dof rx rz
    limits (-90.0 90.0)
           (-45.0 45.0)
  end
  begin
     id 22 
     name lfingers
     direction 1 -4.48961e-011 3.98019e-026   
     length 0.502098   
     axis -2.5397e-014 90 90   XYZ
    dof rx
    limits (0.0 90.0)
  end
  begin
     id 23
     name lthumb
     direction 0.707107 -6.34933e-011 0.707107   
     length 0.720915   
     axis -90 45 2.85299e-015   XYZ
    dof rx rz
    limits (-45.0 45.0)
           (-45.0 45.0)
  end
  begin
     id 24 
     name rclavicle
     direction -0.990867 0.133739 -0.0172226   
     length 3.78845  
     axis 0 0 0   XYZ 
    dof ry rz
    limits (-10.0 20.0)
           (-20.0 0.0)
  end
  begin
     id 25 
     name rhumerus
     direction -1 -4.48972e-011 -1.99267e-027  
     length 4.96493   
     axis 180 30 90   XYZ
    dof rx ry rz
    limits (-90.0 60.0)
           (-90.0 90.0)
           (-90.0 90.0)
  end
  begin
     id 26 
     name rradius
     direction -1 -4.48969e-011 8.96093e-027   
     length 3.34929   
     axis 180 30 90   XYZ
    dof rx
    limits (-10.0 170.0)
  end
  begin
     id 27 
     name rwrist
     direction -1 -4.48953e-011 9.95048e-027   
     length 1.67464   
     axis -8.75986e-015 -90 -90   XYZ
    dof ry
    limits (-180.0 0.0)
  end
  begin
     id 28
     name rhand
     direction -1 -4.49001e-011 1.9901e-026   
     length 0.638041   
     axis -1.26985e-014 -90 -90   XYZ
    dof rx rz
    limits (-90.0 90.0)
           (-45.0 45.0)
  end
  begin
     id 29
     name rfingers
     direction -1 -4.48967e-011 3.98019e-026   
     length 0.514405   
     axis -2.5397e-014 -90 -90   XYZ
    dof rx
    limits (0.0 90.0)
  end
  begin
     id 30
     name rthumb
     direction -0.707107 -6.34904e-011 0.707107   
     length 0.738586   
     axis -90 -45 -2.85299e-015   XYZ
    dof rx rz
    limits (-45.0 45.0)
           (-45.0 45.0)
  end
:hierarchy
  begin
    root lhipjoint rhipjoint lowerback
    lhipjoint lfemur
    lfemur ltibia
    ltibia lfoot
    lfoot ltoes
    rhipjoint rfemur
    rfemur rtibia
    rtibia rfoot
    rfoot rtoes
    lowerback upperback
    upperback thorax
    thorax lowerneck lclavicle rclavicle
    lowerneck upperneck
    upperneck head
    lclavicle lhumerus
    lhumerus lradius
    lradius lwrist
    lwrist lhand lthumb
    lhand lfingers
    rclavicle rhumerus
    rhumerus rradius
    rradius rwrist
    rwrist rhand rthumb
    rhand rfingers
  end

#!OML:ASF E:\Mandelcareful walks\Project 1\Capture day 1\Session 1\Subject1.ASF
:FULLY-SPECIFIED
:DEGREES
268
root -0.871309 15.393 2.33763 18.4074 1.31098 -3.18334
lowerback 28.3889 3.87752 -1.33167
upperback 8.37617 4.22677 -3.43466
thorax -6.04582 2.04672 -4.41413
lowerneck -20.7959 18.3057 13.179
upperneck 12.087 26.3921 -23.4933
head 12.6942 10.697 -5.17553
rclavicle -1.55052e-014 -1.82882e-014
rhumerus -30.7265 20.7582 -94.9639
rradius 41.4343
rwrist -68.9498
rhand 5.97018 -38.1956
rfingers 7.12502
rthumb 31.2949 -65.5405
lclavicle -1.55052e-014 -1.82882e-014
lhumerus -21.6098 -87.5004 116.015
lradius 55.9769
lwrist 5.88615
lhand -9.78939 -10.604
lfingers 7.12502
lthumb 16.1865 18.7402
rfemur -40.452 -6.77764 6.06599
rtibia 43.9547
rfoot -15.2151 -12.2691
rtoes -13.5564
lfemur -55.8005 16.725 -25.1409
ltibia 64.0289
lfoot -28.3948 13.7895
ltoes 7.14399
269
root -0.845728 15.3881 2.40097 18.3206 1.3276 -3.37325
lowerback 28.2962 4.0323 -1.76144
upperback 8.33177 4.31488 -3.35587
thorax -6.08366 2.08594 -4.10519
lowerneck -21.4288 17.9361 13.0613
upperneck 12.7246 25.9357 -23.277
head 12.9092 10.408 -5.19422
rclavicle -2.42517e-014 1.70955e-014
rhumerus -30.8747 21.253 -94.9687
rradius 42.06
rwrist -68.9238
rhand 6.05622 -38.4718
rfingers 7.12502
rthumb 31.3769 -65.8008
lclavicle -2.42517e-014 1.70955e-014
lhumerus -17.4007 -87.7994 111.222
lradius 56.6778
lwrist 5.69256
lhand -10.3535 -10.191
lfingers 7.12502
lthumb 15.6432 19.1966
rfemur -41.1684 -6.41737 6.42303
rtibia 44.2071
rfoot -14.7691 -12.15
rtoes -12.3235
lfemur -55.5801 17.0982 -25.103
ltibia 64.2045
lfoot -28.6164 13.6561
ltoes 6.4806
270
root -0.817156 15.3738 2.46669 18.2848 1.66577 -3.56336
lowerback 28.1258 3.98992 -1.89487
upperback 8.32523 4.24616 -3.23796
thorax -6.03316 2.05335 -3.86356
lowerneck -22.1135 17.3623 12.2924
upperneck 13.2697 25.2592 -22.7399
head 12.9 10.0302 -5.06741
rclavicle -3.37934e-014 -2.14687e-014
rhumerus -30.8073 21.8746 -94.8473
rradius 42.4393
rwrist -69.1069
rhand 6.4258 -38.417
rfingers 7.12502
rthumb 31.729 -65.6769
lclavicle -3.37934e-014 -2.14687e-014
lhumerus -11.1628 -87.8534 104.769
lradius 57.1082
lwrist 5.63137
lhand -10.9041 -9.00162
lfingers 7.12502
lthumb 15.1128 20.4266
rfemur -41.9432 -6.55972 7.01919
rtibia 44.4689
rfoot -13.8301 -12.5844
rtoes -14.7174
lfemur -55.4476 17.0941 -24.9767
ltibia 64.454
lfoot -28.7774 13.6568
ltoes 5.52972
271
root -0.780135 15.3727 2.53084 18.2586 2.37339 -3.65147
lowerback 28.0058 3.74861 -1.55142
upperback 8.34888 4.04486 -3.25358
thorax -5.93534 1.96217 -4.00223
lowerneck -23.05 16.6855 11.7325
upperneck 14.0234 24.4052 -22.1807
head 13.0217 9.55236 -4.9986
rclavicle -1.78906e-014 9.54166e-015
rhumerus -30.7195 22.1756 -94.9051
rradius 42.6997
rwrist -69.0261
rhand 7.36581 -37.5897
rfingers 7.12502
rthumb 32.6238 -64.6686
lclavicle -1.78906e-014 9.54166e-015
lhumerus -6.76658 -88.1022 100.107
lradius 57.4935
lwrist 5.43406
lhand -11.0388 -8.38173
lfingers 7.12502
lthumb 14.9831 21.0562
rfemur -42.5013 -6.87479 7.44208
rtibia 44.686
rfoot -13.4643 -12.7957
rtoes -16.2881
lfemur -55.1312 16.0874 -24.617
ltibia 64.6143
lfoot -29.1572 14.0421
ltoes 5.21635
272
root -0.780668 15.3596 2.60011 18.0627 2.22224 -3.88208
lowerback 28.0276 4.03902 -2.03985
upperback 8.35417 4.27952 -3.23164
thorax -5.96279 2.07147 -3.77589
lowerneck -24.051 16.0033 11.133
upperneck 14.9294 23.5641 -21.514
head 13.2045 9.07664 -4.87804
rclavicle -1.19271e-014 3.93594e-014
rhumerus -30.6816 22.6412 -94.977
rradius 43.0714
rwrist -69.1344
rhand 8.10484 -36.8998
rfingers 7.12502
rthumb 33.3267 -63.8305
lclavicle -1.19271e-014 3.93594e-014
lhumerus -2.67123 -88.2384 95.7024
lradius 57.7771
lwrist 4.72001
lhand -11.017 -8.9925
lfingers 7.12502
lthumb 15.0041 20.4439
rfemur -43.2096 -6.1749 7.81816
rtibia 45.0099
rfoot -13.2444 -12.7528
rtoes -18.4495
lfemur -54.88 17.2583 -24.6757
ltibia 64.8615
lfoot -29.4523 13.1694
ltoes 5.53918
273
root -0.752124 15.3534 2.66702 17.763 2.70821 -3.79818
lowerback 28.2938 3.89345 -2.06522
upperback 8.35787 4.08054 -3.22957
thorax -6.09681 1.97582 -3.71478
lowerneck -24.8009 15.4731 10.8304
upperneck 15.6938 22.9331 -21.1815
head 13.4372 8.70667 -4.87292
rclavicle 9.30312e-014 -7.59357e-014
rhumerus -30.663 23.1508 -94.8853
rradius 43.4541
rwrist -69.2745
rhand 8.24979 -37.1481
rfingers 7.12502
rthumb 33.4645 -64.0492
lclavicle 9.30312e-014 -7.59357e-014
lhumerus -2.60205 -88.1121 95.5164
lradius 57.8677
lwrist 3.69815
lhand -11.6821 -10.0337
lfingers 7.12502
lthumb 14.3634 19.4494
rfemur -43.5887 -6.35547 7.916
rtibia 45.3206
rfoot -13.1154 -12.1655
rtoes -18.6452
lfemur -54.2811 16.7779 -24.5813
ltibia 65.0055
lfoot -29.9439 13.064
ltoes 6.20189
